<?xml version="1.0" standalone="no"?>
<!DOCTYPE svg PUBLIC "-//W3C//DTD SVG 20010904//EN"
 "http://www.w3.org/TR/2001/REC-SVG-20010904/DTD/svg10.dtd">
<svg version="1.0" xmlns="http://www.w3.org/2000/svg"
 width="1500.000000pt" height="450.000000pt" viewBox="0 0 1500.000000 450.000000"
 preserveAspectRatio="xMidYMid meet">
<metadata>
Created by potrace 1.10, written by Peter Selinger 2001-2011
</metadata>
<g transform="translate(0.000000,450.000000) scale(0.110000,-0.110000)"
fill="White" stroke="none">
<path d="M1784 3861 c-37 -23 -54 -65 -54 -137 0 -68 -11 -74 -128 -74 -80 0
-91 -2 -110 -23 -28 -30 -30 -101 -3 -136 18 -23 27 -25 118 -29 54 -2 104 -9
111 -14 8 -7 12 -42 12 -109 0 -98 0 -100 -26 -109 -14 -6 -69 -10 -123 -10
-94 0 -98 -1 -124 -28 -38 -39 -38 -103 -1 -137 25 -23 34 -25 139 -25 122 0
152 -10 138 -45 -4 -11 -56 -92 -114 -180 -58 -88 -123 -189 -145 -224 -21
-34 -49 -75 -61 -90 -19 -22 -24 -24 -33 -11 -6 9 -10 170 -10 430 0 348 -3
420 -15 444 -8 15 -15 33 -15 39 0 5 -13 32 -30 59 -16 26 -30 59 -30 73 0 13
19 52 43 87 61 90 68 111 56 150 -17 52 -52 78 -106 78 -42 0 -51 -4 -90 -45
-23 -25 -45 -45 -48 -45 -3 0 -25 20 -49 45 -41 42 -48 45 -96 45 -67 0 -100
-30 -100 -90 0 -32 11 -57 50 -118 28 -43 50 -89 50 -103 0 -15 -16 -51 -36
-80 -66 -99 -84 -135 -84 -173 0 -66 46 -126 97 -126 41 0 70 22 108 81 21 32
45 61 53 64 29 11 46 -22 50 -94 l4 -70 -64 -98 c-85 -129 -169 -258 -201
-310 -39 -62 -38 -134 2 -174 23 -22 39 -29 69 -29 46 0 77 21 117 82 34 50
54 70 66 62 5 -3 9 -151 9 -329 0 -371 7 -345 -95 -345 -105 0 -154 -41 -141
-119 10 -66 33 -76 188 -79 125 -3 141 -2 171 17 70 43 68 33 68 302 -1 134 3
257 7 273 l8 29 16 -25 c32 -49 48 -58 98 -58 42 0 53 4 79 33 17 17 31 37 31
42 0 20 67 88 78 81 9 -5 12 -90 12 -311 l0 -304 35 -35 c19 -19 49 -38 67
-41 18 -3 142 -5 275 -3 l243 3 37 38 38 37 0 474 c0 453 -1 475 -19 495 -40
44 -70 51 -235 51 -157 0 -201 5 -201 21 0 20 72 107 93 112 12 3 102 6 199 6
107 0 186 4 198 11 47 25 58 115 19 156 -21 23 -29 24 -139 24 -77 0 -122 4
-133 13 -16 11 -16 14 0 45 10 18 74 119 142 224 132 204 141 227 103 277 -15
21 -29 27 -71 29 -67 4 -88 -9 -142 -93 l-43 -65 -97 0 c-117 0 -129 8 -129
93 0 68 -15 104 -51 123 -38 19 -68 18 -105 -5z m234 -422 c4 -20 -40 -84 -58
-84 -19 0 -26 71 -9 91 16 19 63 14 67 -7z m184 -762 c11 -18 9 -146 -2 -168
-10 -17 -23 -19 -160 -19 -174 0 -163 -8 -158 120 3 68 5 75 26 80 42 10 286
-1 294 -13z m-8 -399 c12 -17 16 -50 16 -141 0 -65 -5 -127 -10 -138 -10 -17
-23 -19 -153 -19 -98 0 -147 4 -155 12 -8 8 -12 56 -12 148 0 92 4 140 12 148
8 8 56 12 149 12 131 0 139 -1 153 -22z"/>
<path d="M3653 3841 c-84 -39 -77 29 -83 -896 l-5 -820 -47 -62 c-40 -51 -48
-69 -48 -103 0 -78 78 -123 154 -89 25 12 88 94 121 159 36 70 45 162 45 471
0 244 3 299 14 308 10 9 80 11 251 9 196 -2 237 -6 245 -18 5 -8 10 -65 10
-127 0 -146 4 -143 -149 -143 -137 0 -181 -13 -211 -63 -19 -30 -20 -51 -20
-300 0 -300 3 -314 65 -355 34 -22 37 -22 421 -22 529 0 489 -30 489 370 0
306 -1 309 -68 350 -28 17 -51 20 -167 20 -93 0 -140 4 -148 12 -8 8 -12 53
-12 135 0 111 2 123 19 133 12 6 112 10 255 10 l235 0 20 26 c30 38 28 103 -3
133 -23 22 -30 22 -262 24 -132 1 -245 6 -251 10 -9 5 -13 34 -13 82 0 84 -10
119 -47 157 -15 15 -24 30 -21 34 4 3 110 6 236 7 216 2 232 3 259 23 58 42
64 70 61 269 -3 200 -8 218 -71 252 -29 17 -80 18 -632 21 -575 2 -602 1 -642
-17z m1110 -184 c26 -7 27 -9 27 -82 0 -69 -2 -75 -22 -80 -13 -3 -237 -4
-498 -3 l-475 3 0 80 0 80 160 5 c229 7 775 5 808 -3z m-395 -372 c3 -3 -9
-20 -26 -38 -31 -32 -32 -37 -35 -126 -2 -77 -5 -95 -21 -106 -15 -11 -68 -14
-245 -13 -129 1 -231 5 -238 11 -16 11 -18 258 -4 273 10 9 559 9 569 -1z
m310 -951 c22 -6 22 -9 22 -168 0 -113 -4 -166 -12 -174 -16 -16 -510 -17
-539 -2 -18 10 -19 23 -19 175 0 147 2 164 18 168 26 7 504 8 530 1z"/>
<path d="M7362 3844 c-33 -23 -29 -81 14 -178 73 -164 85 -187 112 -197 36
-14 80 -2 99 27 14 22 14 30 3 67 -8 23 -26 67 -41 97 -14 30 -38 81 -53 112
-38 83 -83 108 -134 72z"/>
<path d="M7567 3842 c-31 -34 -22 -102 24 -182 5 -8 12 -22 15 -30 11 -29 36
-85 54 -120 22 -44 64 -59 106 -38 27 13 29 18 28 65 -1 28 -9 64 -17 79 -21
40 -73 154 -81 181 -17 54 -96 81 -129 45z"/>
<path d="M6833 3826 c-45 -20 -63 -62 -63 -145 0 -59 -3 -72 -19 -81 -12 -6
-103 -10 -226 -10 l-206 0 -24 -26 c-35 -37 -35 -111 -1 -151 l24 -28 224 -5
223 -5 0 -200 0 -200 -230 -5 c-126 -3 -238 -9 -247 -14 -25 -12 -58 -69 -58
-101 0 -32 33 -89 58 -101 9 -5 121 -11 247 -14 l230 -5 5 -355 c5 -385 6
-391 64 -453 48 -52 103 -67 244 -67 108 0 132 3 159 20 59 36 79 110 46 173
-19 37 -35 52 -82 72 -46 21 -78 18 -134 -9 -46 -23 -48 -23 -58 -5 -11 21 -9
613 3 624 3 4 96 6 205 5 123 0 210 4 230 11 46 16 77 69 70 120 -12 88 -51
100 -308 99 -150 -1 -194 1 -200 12 -13 19 -11 355 1 379 10 18 23 19 171 19
l161 0 29 29 c24 25 29 37 29 81 0 42 -4 55 -26 75 -26 24 -31 25 -190 25
-190 0 -184 -4 -184 107 0 61 -3 73 -27 101 -34 38 -91 50 -140 28z"/>
<path d="M9324 3828 c-23 -11 -47 -60 -124 -253 -18 -44 -36 -89 -41 -100 -4
-11 -18 -45 -29 -75 -12 -30 -26 -64 -31 -75 -5 -11 -20 -51 -34 -90 -14 -38
-29 -79 -34 -90 -6 -11 -26 -63 -46 -115 -40 -103 -62 -137 -79 -120 -5 5 -31
10 -56 10 -35 0 -52 -5 -67 -22 -49 -53 -33 -153 28 -178 18 -8 60 -11 113 -8
67 3 92 9 128 31 57 33 101 87 128 158 11 30 25 63 30 74 6 11 29 70 51 130
43 112 68 179 87 227 6 15 20 32 31 37 21 12 319 15 359 5 23 -7 29 -31 13
-62 -11 -22 -25 -54 -52 -122 -12 -30 -27 -68 -34 -85 -7 -16 -24 -61 -39
-100 -37 -99 -37 -99 -82 -90 -22 3 -52 13 -69 20 -120 54 -187 52 -224 -9
-51 -83 -13 -150 108 -192 88 -30 131 -51 131 -64 0 -9 -9 -33 -35 -95 -7 -16
-21 -50 -30 -75 -10 -25 -23 -58 -30 -75 -7 -16 -36 -93 -65 -170 -29 -77 -61
-148 -70 -158 -16 -17 -19 -17 -65 7 -26 14 -59 26 -72 26 -69 0 -133 -61
-133 -129 0 -44 36 -107 69 -120 75 -28 216 -19 292 20 93 47 128 99 214 319
110 285 152 380 166 380 6 0 22 -6 37 -14 42 -22 108 -29 146 -16 38 12 66 58
66 109 0 33 -51 101 -76 101 -22 0 -83 32 -88 47 -6 14 67 211 145 388 5 11
18 45 29 75 11 30 25 64 30 75 37 84 64 169 68 216 4 51 2 58 -26 86 -17 17
-44 33 -59 36 -41 8 -93 -21 -126 -71 l-29 -42 -186 2 c-187 3 -187 3 -190 26
-2 13 2 29 8 37 7 8 13 42 13 76 2 55 -1 63 -26 85 -21 18 -39 24 -75 23 -26
0 -57 -5 -68 -11z"/>
<path d="M11365 2859 c-31 -27 -35 -37 -35 -78 1 -54 20 -82 69 -99 54 -19
1280 -17 1325 2 82 34 91 145 15 189 -28 16 -82 17 -684 17 l-654 0 -36 -31z"/>
<path d="M4610 1381 c-6 -12 -10 -116 -10 -268 0 -261 5 -295 44 -280 14 6 16
35 16 281 0 240 -2 275 -16 280 -22 8 -22 8 -34 -13z"/>
<path d="M5804 1386 c-17 -8 -42 -29 -55 -47 -23 -32 -24 -43 -27 -204 -4
-189 3 -227 48 -270 23 -22 41 -29 82 -33 72 -5 116 24 140 93 21 62 23 128 4
144 -18 15 -115 16 -129 2 -16 -16 3 -44 34 -51 20 -5 25 -13 27 -46 3 -35 -1
-43 -29 -63 -30 -22 -35 -23 -58 -10 -48 27 -61 71 -61 212 0 166 21 217 88
217 28 0 62 -42 62 -77 0 -30 21 -63 40 -63 24 0 40 33 34 68 -12 67 -35 103
-78 123 -48 22 -80 23 -122 5z"/>
<path d="M6573 1393 c-9 -3 -13 -33 -13 -101 l0 -97 -32 -27 -32 -26 32 -28
32 -28 0 -113 c0 -108 1 -113 24 -128 35 -23 90 -16 94 12 2 15 -5 25 -25 35
-27 13 -28 16 -31 102 -3 98 3 113 51 118 27 2 32 7 32 28 0 20 -6 26 -30 28
-50 6 -55 16 -55 118 0 79 -3 95 -17 102 -10 5 -24 7 -30 5z"/>
<path d="M7604 1386 c-44 -20 -74 -66 -74 -114 0 -69 23 -106 110 -172 44 -33
84 -69 90 -80 19 -35 12 -79 -16 -105 -36 -33 -78 -33 -107 2 -43 52 -57 62
-72 57 -22 -9 -19 -67 7 -99 43 -55 122 -70 192 -35 58 29 79 62 80 125 1 67
-22 109 -82 155 -76 57 -132 116 -132 137 0 27 37 73 59 73 9 0 32 -11 51 -25
38 -28 68 -32 76 -11 7 18 -21 68 -47 85 -31 19 -101 23 -135 7z"/>
<path d="M8166 1387 c-14 -11 -16 -43 -14 -282 l3 -270 25 0 25 0 5 133 c4
103 8 135 20 142 24 15 45 12 66 -11 16 -17 20 -39 22 -123 3 -133 7 -146 36
-146 32 0 36 14 36 142 0 131 -13 169 -71 198 -21 11 -49 20 -62 20 -39 0 -47
18 -47 111 0 91 -10 111 -44 86z"/>
<path d="M9075 1388 c-3 -7 -4 -135 -3 -283 l3 -270 25 0 25 0 0 280 0 280
-23 3 c-12 2 -24 -3 -27 -10z"/>
<path d="M5372 1298 c-32 -32 -1 -89 37 -68 33 17 22 80 -14 80 -6 0 -16 -5
-23 -12z"/>
<path d="M6385 1297 c-35 -26 0 -84 43 -70 18 7 15 70 -4 77 -20 8 -17 8 -39
-7z"/>
<path d="M4794 1170 c-48 -31 -55 -60 -52 -205 3 -124 4 -130 25 -133 18 -3
22 3 28 38 4 23 4 70 0 105 -5 46 -2 72 9 99 17 41 34 51 72 42 40 -10 55 -60
53 -172 -2 -97 6 -122 35 -111 21 8 30 84 22 189 -7 103 -13 119 -60 147 -42
26 -92 27 -132 1z"/>
<path d="M5105 1170 c-43 -28 -64 -82 -65 -163 0 -81 17 -126 58 -156 60 -42
158 -15 181 51 16 45 14 172 -3 213 -28 67 -110 93 -171 55z m91 -58 c23 -15
34 -53 34 -116 0 -58 -3 -67 -26 -85 -31 -25 -44 -26 -70 -7 -16 12 -19 27
-19 99 0 56 4 89 14 100 14 18 48 22 67 9z"/>
<path d="M5376 1175 c-13 -14 -16 -42 -16 -165 0 -82 3 -155 6 -164 3 -9 17
-16 30 -16 l24 0 -2 177 c-3 181 -8 202 -42 168z"/>
<path d="M6079 1169 c-7 -14 -10 -66 -7 -146 l3 -125 37 -34 c43 -38 88 -45
138 -19 50 26 60 59 60 198 0 99 -3 127 -15 137 -12 10 -18 10 -30 0 -12 -10
-15 -36 -15 -117 0 -141 -29 -195 -86 -159 -21 14 -23 23 -26 141 -2 98 -6
128 -18 135 -22 14 -28 12 -41 -11z"/>
<path d="M6799 1174 c-20 -25 1 -49 46 -51 64 -4 72 -40 12 -57 -20 -6 -47
-21 -62 -33 -21 -20 -25 -31 -25 -81 0 -85 38 -122 127 -122 79 0 83 7 83 164
0 125 -1 134 -22 153 -13 11 -33 26 -45 32 -32 16 -98 14 -114 -5z m125 -180
c9 -24 7 -63 -4 -85 -22 -40 -90 -9 -90 41 0 47 79 84 94 44z"/>
<path d="M7060 1170 c-18 -18 -20 -33 -20 -164 0 -158 3 -176 31 -176 31 0 39
33 39 153 0 91 3 117 15 127 13 11 21 8 48 -18 36 -35 49 -39 65 -19 17 20
-16 77 -58 99 -46 24 -95 23 -120 -2z"/>
<path d="M7916 1171 c-41 -27 -56 -71 -56 -161 0 -92 17 -138 58 -162 67 -40
160 -2 165 67 3 42 -27 45 -68 5 -28 -28 -36 -30 -54 -20 -28 15 -41 49 -41
110 0 97 38 134 89 86 51 -49 99 -25 66 32 -36 60 -105 78 -159 43z"/>
<path d="M8514 1171 c-55 -34 -64 -56 -64 -159 0 -105 13 -143 60 -167 60 -31
149 -5 170 51 6 14 10 66 10 116 0 103 -14 138 -66 163 -43 20 -72 19 -110 -4z
m96 -71 c30 -30 29 -154 -2 -187 -27 -29 -45 -29 -75 -1 -20 19 -23 31 -23 95
0 79 18 113 60 113 11 0 29 -9 40 -20z"/>
<path d="M8818 1168 c-47 -27 -58 -59 -58 -165 0 -96 15 -135 60 -158 60 -31
149 -5 170 51 14 35 13 197 -1 227 -13 29 -77 67 -110 67 -13 0 -41 -10 -61
-22z m97 -62 c16 -11 20 -29 23 -88 3 -63 1 -77 -18 -100 -26 -34 -46 -35 -77
-6 -20 19 -23 31 -23 95 0 60 4 77 20 93 23 23 49 25 75 6z"/>
<path d="M6378 1028 c-3 -174 1 -201 35 -196 22 3 22 4 22 173 l0 170 -27 3
-27 3 -3 -153z"/>
</g>
</svg>
